<?xml version="1.0" encoding="UTF-8"?>
<svg xmlns="http://www.w3.org/2000/svg" width="600" height="148" viewBox="0 0 600 148" version="1.1" fill="#fff">
  <g transform="matrix(0.2428929,0,0,0.2428929,2.8922769,-90.143605)">
    <path d="m 2221.2,382.7 -309.9,-0.1 c -7.9,0 -14.6,5.8 -15.8,13.6 l -15.1,103 c -1.4,9.6 6.1,18.3 15.8,18.3 h 56.6 c 5.7,0 9.6,5.8 7.3,11 -7.1,16.6 -12.2,34.5 -15.1,53.9 l -28.8,199 c -18.9,133.2 92.1,199.9 213,199.9 126.7,0 250.9,-66.6 269.8,-199.9 l 28.8,-199 c 18.6,-130.6 -88.5,-197.2 -206.6,-199.7 z m 59.5,199.7 -28.8,194.9 c -6.6,46.1 -58.4,67.5 -106.1,67.5 -44.4,0 -88,-21.4 -82.3,-63.3 l 28.8,-199 c 6.6,-43.6 58.4,-65.8 106.1,-65.8 47.7,-0.1 88.9,22.1 82.3,65.7 z"/>
    <path d="M 524.6,390.8 H 410.4 c -8,0 -14.7,5.9 -15.8,13.7 l -35,249.9 c 0,0.2 0,0.4 0,0.7 l 1.6,96.6 c 0,2 -1.3,3.7 -3.2,4.2 L 325,639.4 c 0,-0.2 -0.1,-0.4 -0.2,-0.5 L 223,400.5 c -2.5,-5.9 -8.3,-9.7 -14.7,-9.7 H 92.9 c -8,0 -14.7,5.9 -15.8,13.7 L 0.100013,954.9 C -1.19999,964.5 6.20001,973.1 15.9,973.1 h 115 c 8,0 14.7,-5.9 15.8,-13.8 l 30.1,-218.7 c 0,-0.2 0,-0.4 0,-0.6 l -1.6,-112.4 3.3,-0.8 34.5,116.6 c 0,0.2 0.1,0.3 0.2,0.5 l 95.3,219.6 c 2.5,5.8 8.3,9.6 14.6,9.6 h 124.5 c 8,0 14.7,-5.9 15.8,-13.7 l 77,-550.4 c 1.3,-9.6 -6.1,-18.2 -15.8,-18.2 z"/>
    <path d="M 774,390.8 H 659 c -8,0 -14.7,5.9 -15.8,13.7 l -77,550.4 c -1.3,9.6 6.1,18.2 15.8,18.2 h 115 c 8,0 14.7,-5.9 15.8,-13.7 l 77,-550.4 c 1.3,-9.6 -6.1,-18.2 -15.8,-18.2 z"/>
    <path d="M 1314.1,390 H 883.2 c -7.9,0 -14.6,5.8 -15.8,13.6 l -15.1,103 c -1.4,9.6 6.1,18.3 15.8,18.3 h 120.3 c 9.7,0 17.1,8.5 15.8,18.1 l -56.7,412 c -1.3,9.6 6.1,18.1 15.8,18.1 H 1080 c 8,0 14.7,-5.9 15.8,-13.8 l 57.9,-420.7 c 1.1,-7.9 7.8,-13.8 15.8,-13.8 H 1299 c 7.9,0 14.6,-5.8 15.8,-13.6 l 15.1,-103 c 1.4,-9.6 -6.1,-18.2 -15.8,-18.2 z"/>
    <path d="m 1642.4,390.8 h -218.9 c -8,0 -14.7,5.9 -15.8,13.7 l -77,550.4 c -1.3,9.6 6.1,18.2 15.8,18.2 h 116.6 c 8,0 14.7,-5.9 15.8,-13.8 l 22.6,-164.4 c 0.5,-3.9 3.9,-6.9 7.9,-6.9 h 15 c 2.7,0 5.3,1.4 6.7,3.7 l 111.4,174 c 2.9,4.6 8,7.4 13.4,7.4 H 1800 c 12.9,0 20.5,-14.5 13.1,-25.1 L 1696.2,780.9 c -2.8,-4 -1.4,-9.6 3,-11.7 74.6,-36.5 118,-73.8 132.2,-177.7 16.6,-136.5 -68.9,-200.7 -189,-200.7 z m 40.3,203.1 c -4.1,33.7 -30.4,67.4 -75.7,67.4 h -68 c -9.7,0 -17.2,-8.6 -15.8,-18.2 l 14.4,-101.3 c 1.1,-7.9 7.9,-13.7 15.8,-13.7 h 72.5 c 43.7,0 60.9,30.5 56.8,65.8 z"/>
  </g>
</svg>
