<svg xmlns="http://www.w3.org/2000/svg" class="wave-1c2I86" width="1920" height="355" viewBox="0 0 1920 355">
    <path class="wavePath-1FS1OE" fill="#18191C" fill-rule="evenodd" d="M1813.97 44.2481C1763.52 75.198 1765.03 94.381 1701.49 138.838C1637.95 183.295 1542.28 169.025 1488.65 192.371C1426.56 219.412 1451.15 286.787 1359.61 298.553C1279.15 308.901 1257.44 238.086 1182.32 258.166C1127.36 272.851 1064.28 347.722 960.013 348.432C855.733 347.722 792.667 272.65 737.693 257.965C662.573 237.899 640.867 308.701 560.4 298.366C468.867 286.599 493.44 219.224 431.36 192.184C377.72 168.824 282.053 183.094 218.52 138.65C154.973 94.1936 156.48 75.0239 106.04 44.0607C89.1867 33.7263 54.1467 12.9369 0 2V353.8H958.8H1920V2.2008C1865.85 13.1243 1830.81 33.9137 1813.97 44.2481Z"/>
</svg>