<svg width="40" height="40" fill="none" xmlns="http://www.w3.org/2000/svg">
    <path fill-rule="evenodd" clip-rule="evenodd" d="M33.333 5v1.667l5-1.667v6.667l-5-1.667v1.667c0 .921-.746 1.666-1.666 1.666H25c-.92 0-1.667-.745-1.667-1.666V5c0-.922.747-1.667 1.667-1.667h6.667c.92 0 1.666.745 1.666 1.667zM30 25v-8.333h3.333v11.666A3.336 3.336 0 0 1 30 31.667H18.333V35H25v3.333H8.333V35H15v-3.333H3.333A3.336 3.336 0 0 1 0 28.333V10a3.337 3.337 0 0 1 3.333-3.333H20V10H3.333v15H30z" fill="#80A6FF"/>
</svg>